<svg id="wave" style="transform:rotate(0deg); transition: 0.3s" viewBox="0 0 1440 350" version="1.1" xmlns="http://www.w3.org/2000/svg"><defs><linearGradient id="sw-gradient-0" x1="0" x2="0" y1="1" y2="0"><stop stop-color="#F9F1F0" offset="0%"></stop><stop stop-color="#F9F1F0" offset="100%"></stop></linearGradient></defs><path style="transform:translate(0, 0px); opacity:1" fill="url(#sw-gradient-0)" d="M0,210L80,227.5C160,245,320,280,480,256.7C640,233,800,152,960,99.2C1120,47,1280,23,1440,64.2C1600,105,1760,210,1920,239.2C2080,268,2240,222,2400,169.2C2560,117,2720,58,2880,75.8C3040,93,3200,187,3360,204.2C3520,222,3680,163,3840,134.2C4000,105,4160,105,4320,134.2C4480,163,4640,222,4800,227.5C4960,233,5120,187,5280,186.7C5440,187,5600,233,5760,256.7C5920,280,6080,280,6240,250.8C6400,222,6560,163,6720,169.2C6880,175,7040,245,7200,245C7360,245,7520,175,7680,134.2C7840,93,8000,82,8160,81.7C8320,82,8480,93,8640,87.5C8800,82,8960,58,9120,64.2C9280,70,9440,105,9600,122.5C9760,140,9920,140,10080,151.7C10240,163,10400,187,10560,175C10720,163,10880,117,11040,81.7C11200,47,11360,23,11440,11.7L11520,0L11520,350L11440,350C11360,350,11200,350,11040,350C10880,350,10720,350,10560,350C10400,350,10240,350,10080,350C9920,350,9760,350,9600,350C9440,350,9280,350,9120,350C8960,350,8800,350,8640,350C8480,350,8320,350,8160,350C8000,350,7840,350,7680,350C7520,350,7360,350,7200,350C7040,350,6880,350,6720,350C6560,350,6400,350,6240,350C6080,350,5920,350,5760,350C5600,350,5440,350,5280,350C5120,350,4960,350,4800,350C4640,350,4480,350,4320,350C4160,350,4000,350,3840,350C3680,350,3520,350,3360,350C3200,350,3040,350,2880,350C2720,350,2560,350,2400,350C2240,350,2080,350,1920,350C1760,350,1600,350,1440,350C1280,350,1120,350,960,350C800,350,640,350,480,350C320,350,160,350,80,350L0,350Z"></path></svg>